inDegrees=no
num_controls=7
num_derivatives=13
num_iterations=91
num_multipliers=7
num_parameters=0
num_slacks=7
num_states=26
objective=0.468405
objective_accelerations=0.002721
objective_balance=0.002089
objective_effort=0.004331
objective_height=0.454105
objective_ligament=0.005159
solver_duration=1394.589199
status=Solve_Succeeded
success=true
DataType=double
version=3
OpenSimVersion=4.5
endheader
time	/jointset/ground_pelvis/pelvis_tilt/value	/jointset/ground_pelvis/pelvis_tx/value	/jointset/ground_pelvis/pelvis_ty/value	/jointset/hip_l/hip_flexion_l/value	/jointset/hip_l/hip_adduction_l/value	/jointset/hip_l/hip_rotation_l/value	/jointset/back/lumbar_extension/value	/jointset/patellofemoral_l/patellar_flexion_l/value	/jointset/knee_l/knee_flexion_l/value	/jointset/knee_l/knee_adduction_l/value	/jointset/knee_l/knee_rotation_l/value	/jointset/ankle_l/ankle_angle_l/value	/jointset/subtalar_l/subtalar_angle_l/value	/jointset/ground_pelvis/pelvis_tilt/speed	/jointset/ground_pelvis/pelvis_tx/speed	/jointset/ground_pelvis/pelvis_ty/speed	/jointset/hip_l/hip_flexion_l/speed	/jointset/hip_l/hip_adduction_l/speed	/jointset/hip_l/hip_rotation_l/speed	/jointset/back/lumbar_extension/speed	/jointset/patellofemoral_l/patellar_flexion_l/speed	/jointset/knee_l/knee_flexion_l/speed	/jointset/knee_l/knee_adduction_l/speed	/jointset/knee_l/knee_rotation_l/speed	/jointset/ankle_l/ankle_angle_l/speed	/jointset/subtalar_l/subtalar_angle_l/speed	/forceset/tau_hip_flexion_l	/forceset/tau_hip_adduction_l	/forceset/tau_hip_rotation_l	/forceset/tau_knee_flexion_l	/forceset/tau_ankle_angle_l	/forceset/tau_subtalar_angle_l	/forceset/tau_lumbar_extension	lambda_cid13_p0	lambda_cid13_p1	lambda_cid13_p2	lambda_cid13_p3	lambda_cid13_p4	lambda_cid13_p5	lambda_cid14_p0	/jointset/ground_pelvis/pelvis_tilt/accel	/jointset/ground_pelvis/pelvis_tx/accel	/jointset/ground_pelvis/pelvis_ty/accel	/jointset/hip_l/hip_flexion_l/accel	/jointset/hip_l/hip_adduction_l/accel	/jointset/hip_l/hip_rotation_l/accel	/jointset/back/lumbar_extension/accel	/jointset/patellofemoral_l/patellar_flexion_l/accel	/jointset/knee_l/knee_flexion_l/accel	/jointset/knee_l/knee_adduction_l/accel	/jointset/knee_l/knee_rotation_l/accel	/jointset/ankle_l/ankle_angle_l/accel	/jointset/subtalar_l/subtalar_angle_l/accel	gamma_cid13_p0	gamma_cid13_p1	gamma_cid13_p2	gamma_cid13_p3	gamma_cid13_p4	gamma_cid13_p5	gamma_cid14_p0
1	-0.07896400455551254	0.08866728005658393	0.8867472425312622	0.2713635111368897	-0.3510997064862432	-0.4963125790225673	-0.2571271106294873	0.1929671332314066	0.1929671332312707	-0.1744949586582282	-0.1722773794287737	0.01147473470011058	0.01554257943005703	-0.04340893393002274	0.02606280071021314	-0.001314365860156577	0.009512224073848767	0.00117384735008123	-3.418622382694663e-05	0.07818246552626532	-0.007481747356819698	-0.007481747356819338	-8.280857853197834e-05	0.007393441041868076	0.02684375346595879	0.01658349860968825	-0.05446301677717583	0.07506250875929252	-0.0113390664066518	-0.07402515714437401	-0.003008667351924525	-0.02226286462831749	0.09376090655823155	-37.38975573021977	8.65409645539194	6.921253015927584	6.313787575818843	-549.9796276902277	-37.27932899392138	-42.69300273487619	-0.0138768109233777	0.01212611613070563	0.04074895220753358	-0.2791880818016594	0.1323633522995614	-0.1927948933834951	0.6694357513754242	-0.540312570767347	-0.5403125707672719	-0.002228100323153191	0.02077999241857933	-0.2475984154120181	0.01142685226973489	1.551140785082505e-10	3.612356494802802e-09	-1.051966246907961e-09	1.382775638642682e-09	-9.051216632731754e-10	4.017006651088696e-09	3.764293916906252e-10
1.01	-0.07939896632786041	0.08892850062778442	0.8867361027440972	0.2714451207843103	-0.3510813380193827	-0.4963227196312653	-0.2563116476236554	0.1928656947182369	0.1928656947181175	-0.1744956448560452	-0.1722026842308408	0.01173096591639015	0.01570909903485291	-0.04358227634179748	0.02618153129384588	-0.0009134458027314028	0.006809381429991589	0.00250162383796682	-0.001997366778807896	0.08490916386061013	-0.01280522068321619	-0.01280522068322347	-4.992060068766893e-05	0.007542556844602431	0.02440352492127122	0.01672300211564541	-0.05440399366839373	0.07516823410572086	-0.01131228897145068	-0.073867465831864	-0.003281668599447265	-0.02231264545562303	0.09362895729830063	-37.47418162316757	8.688433201013826	6.918138022322218	6.304246859805969	-549.9493977796632	-37.23979726440436	-42.69053841829261	-0.01889128493566233	0.01177949404119191	0.03978513822381115	-0.2658809489126749	0.1332514955923915	-0.1985941091114684	0.6741411077193817	-0.5282545960758978	-0.5282545960770659	0.006724089717688302	0.01152090081172623	-0.2420797241749331	0.01559858156403524	2.229640898839978e-11	3.730552914632127e-09	-8.699261200189563e-10	1.499826825671265e-09	-1.295113255691555e-09	3.920832351734978e-09	3.596307998505415e-10
1.02	-0.0798356271900542	0.08919091509773376	0.8867289764786492	0.2714996922866394	-0.3510496384479343	-0.4963525949400287	-0.2554289467878293	0.1927110434952856	0.1927110434951919	-0.1744958668054681	-0.1721265891695975	0.0119628259171873	0.015877090971069	-0.0437487518988038	0.02630158045998317	-0.000511661516731409	0.004104595056757377	0.003840068268233466	-0.00398112623603341	0.09163003152517085	-0.01812428930961745	-0.01812428930963344	1.004109232885556e-05	0.007673413711776619	0.02196951036946946	0.01687796489381324	-0.05434497055969327	0.07527395945212273	-0.01128551153604119	-0.07370977451944372	-0.003554669847007771	-0.02236242628298198	0.09349700803834442	-37.5620296730342	8.722884969167199	6.915557721029428	6.30605648922432	-549.9665399901767	-37.20819394184583	-42.68794374524451	-0.01250343996960843	0.01238983263153456	0.0409217979224995	-0.2795768276770352	0.1344969407757854	-0.1969106738324048	0.6682696174186732	-0.5394316307682862	-0.5394316307684227	0.003186642711323242	0.01712820530653187	-0.2463556168349441	0.01451870671183171	-2.328655652003826e-10	3.73216906453759e-09	-3.512147826980645e-10	1.601761732272622e-09	-1.772543009822578e-09	3.494435522941434e-09	2.718342653735988e-10
1.03	-0.08027393944044491	0.08945453523161306	0.8867258676668668	0.2715272177656704	-0.3510045284329759	-0.4964023575003615	-0.2544790562399086	0.1925032182985835	0.1925032182983859	-0.1744954218833338	-0.17204923226104	0.01217036441539368	0.0160466712647263	-0.04391462311496035	0.02642252779089697	-0.0001104238158820299	0.001401246270696212	0.005180957599734622	-0.005969262369775756	0.09834810551129854	-0.02344064693371287	-0.0234406469337207	7.65383498756499e-05	0.007799623859449024	0.01953794531622906	0.0170367607101279	-0.0542296103266975	0.07533123034109711	-0.01126714699845645	-0.07358206894505916	-0.003758797743958229	-0.02242631846203701	0.09331002454247601	-37.62492870242794	8.759309856704386	6.912419618984722	6.294871182551135	-549.9249413363084	-37.17329164722188	-42.68521657090454	-0.01876770838205824	0.01195974568853837	0.03967585667740105	-0.2656021357116587	0.1337382541618485	-0.1994464954154959	0.6735804072551004	-0.5277223993598058	-0.5277223993584599	0.008020937612572767	0.01061574547888202	-0.2415935156046722	0.01635945165202337	-4.892759506612975e-10	3.732595619851993e-09	1.709319751374404e-10	1.703542391114518e-09	-2.250864990093527e-09	3.064669076500542e-09	1.833132620942387e-10
1.04	-0.08071393815218869	0.0897193673512752	0.8867267614521953	0.2715277321105017	-0.3509460388597415	-0.4964719377044892	-0.2534619841285193	0.1922422326113881	0.1922422326111042	-0.1744943840545071	-0.1719705635858641	0.01235357994986047	0.01621779940305842	-0.04408604416883563	0.02654397761654556	0.0002888579054278626	-0.001297631780983089	0.006515979924225222	-0.007944654994334794	0.1050663442192379	-0.02875638740299516	-0.02875638740299484	0.0001286224208647461	0.007935767046379421	0.01710491762154312	0.01718753382886985	-0.05411425009383097	0.07538850123005138	-0.01124878246058007	-0.07345436337079606	-0.003962925640951554	-0.02249021064114211	0.09312304104654294	-37.69124966975656	8.795848937120983	6.909817246199046	6.29502870681726	-549.9307004142191	-37.14629939107024	-42.68235397898646	-0.01361340751327713	0.01249033157842137	0.04053060201460363	-0.2786826808006371	0.133323539373681	-0.1943619719957345	0.6683025617810627	-0.5393081998056475	-0.539308199805784	0.0003040053998027573	0.01911481315812224	-0.2466481451241333	0.0129141671972533	-5.839123436508078e-10	3.774075223212307e-09	4.263796042319026e-10	1.754006871059035e-09	-2.599649550582054e-09	2.995231136152304e-09	1.523119610248369e-10
1.05	-0.08115567285095375	0.08998541999402886	0.8867316382162383	0.2715012724059652	-0.3508742274768501	-0.4965612360733797	-0.2523777404831027	0.191928101005211	0.1919281010049561	-0.1744928914945396	-0.1718905128154301	0.01251246570852249	0.01639040088626879	-0.04426129773731503	0.02666698238415448	0.0006861588700394097	-0.003994172548985567	0.007845473759148441	-0.009915870115356678	0.1117813247494307	-0.03406891012185845	-0.0340689101218604	0.0001682732854946997	0.008072959573468087	0.01467281244720541	0.01733209398797185	-0.05394166678828676	0.075398401508007	-0.01124163264779846	-0.07336964683198521	-0.004071113086773216	-0.02257103140589243	0.09288200677376904	-37.72420481305752	8.834324885030462	6.906418475436865	6.270870074323038	-549.8837892290478	-37.11438010143468	-42.67934657434802	-0.0195416715159705	0.01227062773107081	0.0392788463550119	-0.265119370705448	0.1326387345505101	-0.1986289923494467	0.6729367816281592	-0.5270707750873891	-0.5270707750875845	0.005553656145840857	0.01080738502790113	-0.2414049340089728	0.01512594856423482	-6.734932993755877e-10	3.816837734324056e-09	6.734928855532087e-10	1.802867720413009e-09	-2.944386066702383e-09	2.937053461619459e-09	1.23108150649496e-10
1.06	-0.08159917215340771	0.09025271570013463	0.8867404777904617	0.2714478513745598	-0.3507891458698134	-0.4966702721355198	-0.251226378835788	0.1915608748783766	0.1915608748781905	-0.174491050820046	-0.1718091329372866	0.01264704776935711	0.01656442777272923	-0.04443896490580928	0.02679259028696493	0.00108141994148047	-0.006689897153184776	0.009170024754028774	-0.01189219364414331	0.1184899445992139	-0.03937529152715181	-0.03937529152715504	0.0001982453161704906	0.008201588602310683	0.01224417805605023	0.01747261447897465	-0.05376908348281646	0.07540830178595907	-0.01123448283461962	-0.07328493029328051	-0.004179300532620371	-0.02265185217066556	0.09264097250095339	-37.76058127435902	8.872914741424864	6.90355567951201	6.25798749572413	-549.8842401396472	-37.09039959784292	-42.67619220992514	-0.01409612751617818	0.01301095861866202	0.04012262338050716	-0.2785194480399641	0.132334971365105	-0.1953836535486699	0.6670304256992083	-0.5380799370916473	-0.5380799370915839	-0.001631761391024332	0.01740211350890721	-0.2459539884877	0.01210623357737417	-9.12697416625385e-10	3.864497953021425e-09	1.056710731777423e-09	1.939435300138123e-09	-3.312986523644366e-09	2.637166640714761e-09	5.25132016003706e-11
